{"title":"Dont Let Him In 2011 BRRip XviD Ac3 Feel-Free","uid":6872808,"size":990471017,"categoryP":"video","categoryS":"movies","magnet":"?xt=urn:btih:01715427778223209b6ee35cd67c6429a07d9d14&amp;dn=Dont+Let+Him+In+2011+BRRip+XviD+Ac3+Feel-Free&amp;tr=udp%3A%2F%2Ftracker.openbittorrent.com%3A80&amp;tr=udp%3A%2F%2Fopen.demonii.com%3A1337&amp;tr=udp%3A%2F%2Ftracker.coppersurfer.tk%3A6969&amp;tr=udp%3A%2F%2Fexodus.desync.com%3A6969","seeders":0,"leechers":1,"uploader":".BONE.","files":8,"time":1323326027,"description":"Genre:Horror | Thriller\nLanguage:English\n &lt;a href=&quot;\nhttp://www.imdb.com/title/tt1400515/&quot; rel=&quot;nofollow&quot; target=&quot;_NEW&quot;&gt;\nhttp://www.imdb.com/title/tt1400515/&lt;/a&gt;\n\nSource:720p.BluRay Thanks!\n\nFormat : AVI\nFormat/Info : Audio Video Interleave\nFile size : 942 MiB\nDuration : 1h 19mn\nOverall bit rate : 1 656 Kbps\n\nVideo\nID : 0\nFormat : MPEG-4 Visual\nFormat profile : Advanced Simple@L5\nFormat settings, BVOP : Yes\nFormat settings, QPel : No\nFormat settings, GMC : No warppoints\nFormat settings, Matrix : Default (H.263)\nCodec ID : XVID\nCodec ID/Hint : XviD\nDuration : 1h 19mn\nBit rate : 1 199 Kbps\nWidth : 640 pixels\nHeight : 384 pixels\nDisplay aspect ratio : 1.667\nFrame rate : 23.976 fps\nColor space : YUV\nChroma subsampling : 4:2:0\nBit depth : 8 bits\nScan type : Progressive\nBits/(Pixel*Frame) : 0.203\nStream size : 682 MiB (72%)\nWriting library : XviD 1.2.1 (UTC 2008-12-04)\n\nAudio\nID : 1\nFormat : AC-3\nFormat/Info : Audio Coding 3\nMode extension : CM (complete main)\nCodec ID : 2000\nDuration : 1h 19mn\nBit rate mode : Constant\nBit rate : 448 Kbps\nChannel(s) : 6 channels\nChannel positions : Front: L C R, Side: L R, LFE\nSampling rate : 48.0 KHz\nBit depth : 16 bits\nStream size : 255 MiB (27%)\nAlignment : Aligned on interleaves\nInterleave, duration : 42 ms (1.00 video frame)\nInterleave, preload duration : 512 ms\n\n\nPlot:\nTwo couples spend a weekend in the country, only to cross paths with a brutal serial killer. As the body count rises, suspicion spirals into paranoia, climaxing in a terrifying battle for survival","torrent":{"xt":"urn:btih:01715427778223209b6ee35cd67c6429a07d9d14","amp;dn":"Dont+Let+Him+In+2011+BRRip+XviD+Ac3+Feel-Free","amp;tr":["udp%3A%2F%2Ftracker.openbittorrent.com%3A80","udp%3A%2F%2Fopen.demonii.com%3A1337","udp%3A%2F%2Ftracker.coppersurfer.tk%3A6969","udp%3A%2F%2Fexodus.desync.com%3A6969"],"infoHash":"01715427778223209b6ee35cd67c6429a07d9d14","infoHashBuffer":{"type":"Buffer","data":[1,113,84,39,119,130,35,32,155,110,227,92,214,124,100,41,160,125,157,20]},"announce":[],"urlList":[]}}